<?xml version="1.0" encoding="utf-8"?>
<!-- Generator: Adobe Illustrator 16.0.0, SVG Export Plug-In . SVG Version: 6.00 Build 0)  -->
<!DOCTYPE svg PUBLIC "-//W3C//DTD SVG 1.1//EN" "http://www.w3.org/Graphics/SVG/1.1/DTD/svg11.dtd">
<svg version="1.1" xmlns="http://www.w3.org/2000/svg" xmlns:xlink="http://www.w3.org/1999/xlink" x="0px" y="0px"
	 viewBox="0 0 200 800" enable-background="new 0 0 800 800" xml:space="preserve">
<g id="Ostankino">
	<g id="XMLID_4_">
		<g>
			<path fill="#eee" d="M112.312,719.686c0,0,37.147,79.77,34.834,79.829c-2.313,0.059-8.516,0.029-8.516,0.029l-9.991-23.118
				h-3.922l-1.207,23.326h-8.482l-5.029-23.178h-5.8l-4.325,23.415h-1.844h-7.041h-1.844l-4.291-23.415h-6.035l-4.828,23.178h-8.482
				l-1.173-23.326h-3.957l-9.957,23.118c0,0-6.236,0.029-8.55-0.029c-2.313-0.06,34.868-79.829,34.868-79.829l1.341-65.051H66.748
				v-4.244l12.17,0.06l1.509-68.285l-5.968-0.059v-17.479h7.074l2.85-123.839H76.84v-10.446h9.589l1.173-92.026h-8.348v-23.919
				h-4.761l-0.034-8.131h4.861l0.067-23.741h9.656h0.805h0.402l0.805-40.271h-6.839v-2.018h7.242l0.57-102.621l-7.845-0.029v-2.018
				h7.979l0.57-64.13v-0.238h-6.705v-1.988h7.745l0.737-51.162l0.738,51.162h7.778v1.988h-6.706v0.238l0.537,64.13h7.979v2.018
				l-7.812,0.029l0.57,102.621h7.242v2.018h-6.84l0.805,40.271h0.369h0.838h9.656l0.034,23.741h4.861l-0.034,8.131h-4.761v23.919
				h-8.314l1.14,92.026h9.589v10.446h-7.543l2.883,123.839h7.074v17.479l-5.968,0.059l1.475,68.285l12.17-0.06v4.244H110.97
				L112.312,719.686z"/>
		</g>
		<g>
		</g>
	</g>
</g>
</svg>
